<svg id="visual" viewBox="0 0 960 100" width="960" height="100" xmlns="http://www.w3.org/2000/svg" xmlns:xlink="http://www.w3.org/1999/xlink" version="1.1"><rect x="0" y="0" width="960" height="100" fill="#FFF"></rect><path d="M0 50L26.7 53C53.3 56 106.7 62 160 59C213.3 56 266.7 44 320 43C373.3 42 426.7 52 480 55.3C533.3 58.7 586.7 55.3 640 51.2C693.3 47 746.7 42 800 40.5C853.3 39 906.7 41 933.3 42L960 43L960 0L933.3 0C906.7 0 853.3 0 800 0C746.7 0 693.3 0 640 0C586.7 0 533.3 0 480 0C426.7 0 373.3 0 320 0C266.7 0 213.3 0 160 0C106.7 0 53.3 0 26.7 0L0 0Z" fill="#D80032" stroke-linecap="round" stroke-linejoin="miter"></path></svg>