<svg id="visual" viewBox="0 0 960 300" width="960" height="300" xmlns="http://www.w3.org/2000/svg" xmlns:xlink="http://www.w3.org/1999/xlink" version="1.1"><rect x="0" y="0" width="960" height="300" fill="#FFF"></rect><path d="M0 154L40 160.5C80 167 160 180 240 179C320 178 400 163 480 145.3C560 127.7 640 107.3 720 115.2C800 123 880 159 920 177L960 195L960 0L920 0C880 0 800 0 720 0C640 0 560 0 480 0C400 0 320 0 240 0C160 0 80 0 40 0L0 0Z" fill="#EDF2F4" stroke-linecap="round" stroke-linejoin="miter"></path></svg>